<svg width="763" height="119" viewBox="0 0 763 119" fill="none" xmlns="http://www.w3.org/2000/svg">
<path d="M28.232 15.632H0.072V6.92799H68.808V15.632H40.776V90H28.232V15.632ZM82.627 6.92799H95.043V42.768H139.203V6.92799H151.619V90H139.203V51.472H95.043V90H82.627V6.92799ZM205.639 91.28C182.428 91.28 170.823 83.7707 170.823 68.752V29.456C170.823 13.584 182.428 5.64799 205.639 5.64799C229.106 5.64799 240.839 13.5413 240.839 29.328V68.752C240.839 76.7733 237.596 82.5333 231.111 86.032C224.626 89.5307 216.135 91.28 205.639 91.28ZM205.895 82.96C221.17 82.96 228.807 78.1813 228.807 68.624V29.072C228.807 18.832 221.127 13.712 205.767 13.712C198.343 13.712 192.626 14.864 188.615 17.168C184.69 19.472 182.727 23.44 182.727 29.072V68.624C182.727 78.1813 190.45 82.96 205.895 82.96ZM260.002 6.92799H289.186C296.525 6.92799 302.242 7.39733 306.338 8.336C310.519 9.18933 313.549 10.768 315.426 13.072C317.389 15.376 318.37 18.7467 318.37 23.184V37.52C318.37 42.4693 316.322 46.3093 312.226 49.04C308.215 51.6853 303.095 53.008 296.866 53.008L323.49 90H308.258L284.45 54.544H272.418V90H260.002V6.92799ZM288.674 46.352C294.818 46.352 299.213 45.6267 301.858 44.176C304.589 42.64 305.954 39.9093 305.954 35.984V24.464C305.954 18.2347 300.578 15.12 289.826 15.12H272.418V46.352H288.674ZM340.877 6.92799H353.293V42.768H397.453V6.92799H409.869V90H397.453V51.472H353.293V90H340.877V6.92799ZM449.681 91.28C443.793 91.28 439.228 90.7253 435.985 89.616C432.828 88.5067 430.524 86.544 429.073 83.728C427.708 80.912 427.025 76.8587 427.025 71.568C427.025 66.8747 427.665 63.248 428.945 60.688C430.31 58.0427 432.572 56.1653 435.729 55.056C438.972 53.9467 443.537 53.392 449.425 53.392H467.985V43.536C467.985 41.232 467.516 39.4827 466.577 38.288C465.724 37.008 464.23 36.112 462.097 35.6C460.049 35.088 457.02 34.832 453.009 34.832C446.609 34.832 439.526 35.344 431.761 36.368V27.92C440.209 27.152 447.846 26.768 454.673 26.768C461.841 26.768 467.132 27.3227 470.545 28.432C473.958 29.456 476.305 31.2907 477.585 33.936C478.865 36.5813 479.505 40.6773 479.505 46.224V90H468.369V84.112C467.43 88.8907 461.201 91.28 449.681 91.28ZM451.601 83.728C455.782 83.728 459.324 83.4293 462.225 82.832C466.065 82.064 467.985 80.272 467.985 77.456V60.56H450.193C446.524 60.56 443.878 60.8587 442.257 61.456C440.636 61.968 439.569 62.992 439.057 64.528C438.545 66.064 438.289 68.5387 438.289 71.952C438.289 75.024 438.588 77.4133 439.185 79.12C439.782 80.7413 440.849 81.936 442.385 82.704C443.921 83.3867 446.225 83.728 449.297 83.728H451.601ZM520.988 91.28C513.052 91.28 507.463 89.872 504.22 87.056C501.063 84.1547 499.484 79.632 499.484 73.488V28.048H511.004V72.848C511.004 74.4693 511.132 75.792 511.388 76.816C511.729 77.7547 512.284 78.736 513.052 79.76C514.588 81.9787 518.343 83.088 524.316 83.088C530.631 83.088 535.068 82.4907 537.628 81.296C540.103 80.1013 541.34 77.9253 541.34 74.768V28.048H552.86V90H541.34V82.448C540.231 88.336 533.447 91.28 520.988 91.28ZM572.859 0.399994H584.379V90H572.859V0.399994ZM604.359 5.64799H615.879V17.68H604.359V5.64799ZM604.359 28.048H615.879V90H604.359V28.048ZM635.859 28.048H647.379V35.6C648.574 29.712 655.358 26.768 667.731 26.768C675.667 26.768 681.214 28.2187 684.371 31.12C687.614 33.936 689.235 38.416 689.235 44.56V90H677.715V45.2C677.715 43.5787 677.587 42.256 677.331 41.232C677.075 40.208 676.563 39.184 675.795 38.16C674.088 36.0267 670.291 34.96 664.403 34.96C659.88 34.96 656.382 35.3013 653.907 35.984C651.518 36.5813 649.811 37.6053 648.787 39.056C647.848 40.5067 647.379 42.5547 647.379 45.2V90H635.859V28.048ZM732.658 118.16C724.21 118.16 717.085 117.691 711.282 116.752V108.56C721.522 109.755 728.989 110.352 733.682 110.352C739.57 110.352 743.837 109.413 746.482 107.536C749.213 105.659 750.578 102.544 750.578 98.192V83.344C750.407 86.0747 748.53 88.08 744.946 89.36C741.447 90.64 737.01 91.28 731.634 91.28C725.234 91.28 720.242 90.6827 716.658 89.488C713.159 88.2933 710.642 86.3307 709.106 83.6C707.655 80.8693 706.93 77.1573 706.93 72.464V47.248C706.93 39.9093 708.893 34.6613 712.818 31.504C716.829 28.3467 723.357 26.768 732.402 26.768C743.154 26.768 749.469 29.2 751.346 34.064V28.048H762.098V95.888C762.098 101.605 761.031 106.085 758.898 109.328C756.765 112.571 753.565 114.832 749.298 116.112C745.031 117.477 739.485 118.16 732.658 118.16ZM734.066 83.6C740.125 83.6 744.391 82.8747 746.866 81.424C749.341 79.9733 750.578 77.2427 750.578 73.232V45.2C750.578 42.384 750.109 40.2507 749.17 38.8C748.317 37.3493 746.695 36.3253 744.306 35.728C741.917 35.0453 738.418 34.704 733.81 34.704C729.458 34.704 726.173 35.0027 723.954 35.6C721.821 36.1973 720.327 37.264 719.474 38.8C718.706 40.2507 718.322 42.384 718.322 45.2V73.232C718.322 76.1333 718.749 78.3093 719.602 79.76C720.455 81.2107 721.991 82.2347 724.21 82.832C726.429 83.344 729.714 83.6 734.066 83.6Z" fill="white"/>
</svg>
